<svg xmlns="http://www.w3.org/2000/svg" xmlns:xlink="http://www.w3.org/1999/xlink" width="500" zoomAndPan="magnify" viewBox="0 0 375 374.999991" height="500" preserveAspectRatio="xMidYMid meet" version="1.0"><defs><clipPath id="1eb80bbe8f"><path d="M 18 122 L 195 122 L 195 359.757812 L 18 359.757812 Z M 18 122 " clip-rule="nonzero"/></clipPath><clipPath id="d49f8874bc"><path d="M 181 122 L 358.339844 122 L 358.339844 359.757812 L 181 359.757812 Z M 181 122 " clip-rule="nonzero"/></clipPath><clipPath id="b85aba00fc"><path d="M 308 101.570312 L 358.339844 101.570312 L 358.339844 136 L 308 136 Z M 308 101.570312 " clip-rule="nonzero"/></clipPath><clipPath id="0339e9ee47"><path d="M 144 15.507812 L 232 15.507812 L 232 74 L 144 74 Z M 144 15.507812 " clip-rule="nonzero"/></clipPath></defs><g clip-path="url(#1eb80bbe8f)"><path fill="#040606" d="M 31.234375 254.71875 L 181.816406 342.003906 L 181.816406 226.171875 L 31.234375 140.109375 Z M 188.324219 359.757812 C 187.164062 359.757812 186.0625 359.453125 185.054688 358.902344 L 21.488281 264.070312 C 19.46875 262.90625 18.246094 260.769531 18.246094 258.445312 L 18.246094 128.953125 C 18.246094 126.632812 19.46875 124.492188 21.488281 123.332031 C 23.472656 122.171875 25.949219 122.171875 27.964844 123.300781 L 191.535156 216.789062 C 193.550781 217.921875 194.804688 220.089844 194.804688 222.414062 L 194.804688 353.28125 C 194.804688 354.992188 194.132812 356.640625 192.910156 357.863281 C 191.6875 359.085938 190.035156 359.757812 188.324219 359.757812 " fill-opacity="1" fill-rule="nonzero"/></g><g clip-path="url(#d49f8874bc)"><path fill="#040606" d="M 194.804688 226.171875 L 194.804688 342.003906 L 345.414062 254.71875 L 345.414062 140.109375 Z M 188.324219 359.757812 C 184.75 359.757812 181.816406 356.855469 181.816406 353.28125 L 181.816406 222.414062 C 181.816406 220.089844 183.066406 217.921875 185.085938 216.789062 L 348.683594 123.300781 C 350.667969 122.171875 353.144531 122.171875 355.164062 123.332031 C 357.148438 124.492188 358.371094 126.632812 358.371094 128.925781 L 358.371094 258.445312 C 358.371094 260.738281 357.148438 262.878906 355.132812 264.070312 L 191.5625 358.871094 C 190.585938 359.453125 189.457031 359.757812 188.324219 359.757812 " fill-opacity="1" fill-rule="nonzero"/></g><path fill="#040606" d="M 24.757812 135.433594 C 21.792969 135.433594 19.195312 133.417969 18.460938 130.542969 C 17.726562 127.671875 19.011719 124.675781 21.609375 123.238281 L 60.300781 102 C 63.449219 100.289062 67.390625 101.417969 69.101562 104.566406 C 70.84375 107.714844 69.683594 111.65625 66.566406 113.367188 L 27.875 134.609375 C 26.894531 135.160156 25.828125 135.433594 24.757812 135.433594 " fill-opacity="1" fill-rule="nonzero"/><path fill="#040606" d="M 125.734375 79.996094 C 122.769531 79.996094 120.171875 77.976562 119.4375 75.105469 C 118.703125 72.230469 120.019531 69.238281 122.585938 67.800781 L 148.074219 53.832031 C 151.191406 52.089844 155.132812 53.253906 156.875 56.402344 C 158.585938 59.546875 157.457031 63.492188 154.308594 65.203125 L 128.851562 79.167969 L 128.851562 79.199219 C 127.902344 79.71875 126.804688 79.996094 125.734375 79.996094 " fill-opacity="1" fill-rule="nonzero"/><path fill="#040606" d="M 251.585938 80.332031 C 250.519531 80.332031 249.449219 80.085938 248.46875 79.535156 L 222.371094 65.203125 C 220.871094 64.378906 219.742188 63.003906 219.253906 61.320312 C 218.792969 59.671875 218.976562 57.898438 219.804688 56.402344 C 221.515625 53.253906 225.457031 52.121094 228.605469 53.832031 L 254.734375 68.167969 C 257.332031 69.601562 258.617188 72.597656 257.882812 75.472656 C 257.148438 78.34375 254.550781 80.332031 251.585938 80.332031 " fill-opacity="1" fill-rule="nonzero"/><g clip-path="url(#b85aba00fc)"><path fill="#040606" d="M 351.890625 135.433594 C 350.792969 135.433594 349.722656 135.160156 348.773438 134.609375 L 311.429688 114.132812 C 309.929688 113.308594 308.832031 111.902344 308.339844 110.25 C 307.851562 108.601562 308.035156 106.828125 308.859375 105.332031 C 310.601562 102.183594 314.546875 101.019531 317.691406 102.761719 L 355.007812 123.238281 C 357.605469 124.675781 358.921875 127.671875 358.1875 130.542969 C 357.421875 133.417969 354.855469 135.433594 351.890625 135.433594 " fill-opacity="1" fill-rule="nonzero"/></g><g clip-path="url(#0339e9ee47)"><path fill="#040606" d="M 188.324219 28.46875 C 170.230469 28.46875 157.640625 37.054688 157.640625 44.726562 C 157.640625 48.148438 159.992188 50.960938 161.949219 52.703125 C 167.632812 57.804688 177.75 60.984375 188.324219 60.984375 C 199.050781 60.984375 208.921875 57.898438 214.699219 52.734375 C 216.5625 51.050781 218.824219 48.363281 218.976562 45.125 C 218.976562 44.96875 218.976562 44.847656 218.976562 44.726562 C 218.976562 37.054688 206.386719 28.46875 188.324219 28.46875 Z M 188.324219 73.972656 C 174.480469 73.972656 161.367188 69.632812 153.300781 62.359375 C 147.644531 57.316406 144.683594 51.234375 144.683594 44.726562 C 144.683594 28.34375 163.84375 15.507812 188.324219 15.507812 C 212.773438 15.507812 231.96875 28.34375 231.96875 44.726562 C 231.96875 45.03125 231.9375 45.335938 231.9375 45.613281 L 231.9375 45.765625 C 231.628906 51.878906 228.667969 57.59375 223.347656 62.359375 C 215.25 69.632812 202.167969 73.972656 188.324219 73.972656 " fill-opacity="1" fill-rule="nonzero"/></g><path fill="#040606" d="M 188.324219 99.585938 C 163.84375 99.585938 144.683594 86.75 144.683594 70.367188 L 144.683594 69.757812 C 144.683594 66.179688 147.585938 63.277344 151.160156 63.277344 C 154.738281 63.277344 157.640625 66.179688 157.640625 69.757812 C 157.640625 70.03125 157.640625 70.246094 157.640625 70.398438 L 157.640625 70.367188 C 157.640625 78.039062 170.230469 86.625 188.324219 86.625 C 206.386719 86.625 218.976562 78.039062 218.976562 70.367188 L 218.976562 70.09375 C 218.976562 70 218.976562 69.878906 218.976562 69.757812 C 218.949219 66.179688 221.789062 63.246094 225.394531 63.214844 C 228.972656 63.15625 231.90625 66.027344 231.9375 69.601562 C 231.96875 69.847656 231.96875 70.121094 231.96875 70.367188 C 231.96875 86.75 212.773438 99.585938 188.324219 99.585938 " fill-opacity="1" fill-rule="nonzero"/><path fill="#040606" d="M 151.160156 76.847656 C 147.585938 76.847656 144.652344 73.941406 144.652344 70.367188 L 144.683594 69.785156 C 144.710938 65.8125 144.652344 44.96875 144.652344 44.757812 C 144.652344 43.046875 145.324219 41.394531 146.546875 40.171875 C 147.769531 38.949219 149.417969 38.246094 151.128906 38.246094 L 151.160156 38.246094 C 154.738281 38.246094 157.640625 41.148438 157.640625 44.726562 C 157.640625 45.582031 157.703125 65.875 157.640625 69.847656 C 157.640625 70.03125 157.640625 70.246094 157.640625 70.398438 L 157.640625 70.367188 C 157.640625 72.078125 156.96875 73.730469 155.746094 74.953125 C 154.523438 76.175781 152.871094 76.847656 151.160156 76.847656 " fill-opacity="1" fill-rule="nonzero"/><path fill="#040606" d="M 225.457031 76.847656 C 221.882812 76.847656 218.976562 73.941406 218.976562 70.367188 L 218.976562 69.632812 C 219.007812 65.753906 218.976562 46.285156 218.976562 45.460938 L 218.976562 44.726562 C 218.976562 41.148438 221.882812 38.246094 225.457031 38.246094 C 229.03125 38.246094 231.9375 41.148438 231.9375 44.726562 L 231.9375 45.460938 C 231.9375 46.253906 231.996094 65.8125 231.96875 69.785156 C 231.96875 70.03125 231.96875 70.246094 231.9375 70.398438 C 231.9375 72.109375 231.265625 73.761719 230.042969 74.953125 C 228.820312 76.175781 227.167969 76.847656 225.457031 76.847656 " fill-opacity="1" fill-rule="nonzero"/><path fill="#040606" d="M 188.324219 118.226562 C 170.230469 118.226562 157.640625 126.785156 157.640625 134.488281 C 157.640625 137.910156 159.992188 140.722656 161.949219 142.464844 C 167.632812 147.566406 177.75 150.746094 188.324219 150.746094 C 198.867188 150.746094 208.984375 147.566406 214.699219 142.464844 C 216.5625 140.8125 218.824219 138.125 218.976562 134.882812 C 218.976562 134.730469 218.976562 134.609375 218.976562 134.488281 C 218.976562 126.785156 206.386719 118.226562 188.324219 118.226562 Z M 188.324219 163.734375 C 174.480469 163.734375 161.367188 159.394531 153.300781 152.121094 C 147.644531 147.078125 144.683594 140.996094 144.683594 134.488281 C 144.683594 118.105469 163.84375 105.269531 188.324219 105.269531 C 212.773438 105.269531 231.96875 118.105469 231.96875 134.488281 C 231.96875 134.792969 231.9375 135.097656 231.9375 135.371094 L 231.9375 135.527344 C 231.628906 141.605469 228.667969 147.351562 223.347656 152.121094 C 215.25 159.394531 202.167969 163.734375 188.324219 163.734375 " fill-opacity="1" fill-rule="nonzero"/><path fill="#040606" d="M 188.324219 189.34375 C 163.84375 189.34375 144.683594 176.507812 144.683594 160.097656 L 144.683594 159.515625 C 144.683594 155.941406 147.585938 153.039062 151.160156 153.039062 C 154.738281 153.039062 157.640625 155.941406 157.640625 159.515625 C 157.640625 159.792969 157.640625 160.003906 157.640625 160.160156 L 157.640625 160.097656 C 157.640625 167.800781 170.230469 176.355469 188.324219 176.355469 C 206.386719 176.355469 218.976562 167.800781 218.976562 160.097656 L 218.976562 159.851562 C 218.976562 159.730469 218.976562 159.640625 218.976562 159.515625 C 218.949219 155.941406 221.789062 153.007812 225.394531 152.945312 C 228.972656 152.914062 231.90625 155.757812 231.9375 159.363281 C 231.96875 159.609375 231.96875 159.851562 231.96875 160.097656 C 231.96875 176.507812 212.773438 189.34375 188.324219 189.34375 " fill-opacity="1" fill-rule="nonzero"/><path fill="#040606" d="M 151.160156 166.578125 C 147.585938 166.578125 144.652344 163.703125 144.652344 160.097656 L 144.683594 159.515625 C 144.710938 155.574219 144.652344 134.699219 144.652344 134.515625 C 144.652344 130.941406 147.554688 128.007812 151.128906 128.007812 L 151.160156 128.007812 C 154.738281 128.007812 157.640625 130.878906 157.640625 134.488281 C 157.640625 135.34375 157.703125 155.636719 157.640625 159.578125 C 157.640625 159.792969 157.640625 160.003906 157.640625 160.160156 L 157.640625 160.097656 C 157.640625 161.839844 156.96875 163.460938 155.746094 164.683594 C 154.523438 165.902344 152.871094 166.578125 151.160156 166.578125 " fill-opacity="1" fill-rule="nonzero"/><path fill="#040606" d="M 225.457031 166.605469 C 221.882812 166.605469 218.976562 163.703125 218.976562 160.097656 L 218.976562 159.394531 C 219.007812 155.511719 218.976562 136.046875 218.976562 135.21875 L 218.976562 134.488281 C 218.976562 130.910156 221.882812 128.007812 225.457031 128.007812 C 229.03125 128.007812 231.9375 130.910156 231.9375 134.488281 L 231.9375 135.1875 C 231.9375 136.015625 231.996094 155.574219 231.96875 159.546875 C 231.96875 159.792969 231.96875 160.003906 231.9375 160.128906 C 231.9375 161.871094 231.265625 163.488281 230.042969 164.710938 C 228.820312 165.933594 227.167969 166.605469 225.457031 166.605469 " fill-opacity="1" fill-rule="nonzero"/><path fill="#040606" d="M 277.382812 73.972656 C 259.320312 73.972656 246.726562 82.53125 246.726562 90.234375 C 246.726562 93.625 249.050781 96.4375 251.007812 98.210938 C 256.722656 103.3125 266.808594 106.492188 277.382812 106.492188 C 288.140625 106.492188 297.980469 103.375 303.757812 98.210938 C 305.621094 96.527344 307.882812 93.871094 308.035156 90.597656 C 308.035156 90.507812 308.066406 90.355469 308.066406 90.203125 C 308.066406 82.53125 295.476562 73.972656 277.382812 73.972656 Z M 277.382812 119.449219 C 263.566406 119.449219 250.457031 115.109375 242.359375 107.867188 C 236.734375 102.792969 233.738281 96.710938 233.738281 90.234375 C 233.738281 73.820312 252.902344 60.984375 277.382812 60.984375 C 301.863281 60.984375 321.023438 73.820312 321.023438 90.234375 C 321.023438 90.539062 321.023438 90.84375 320.992188 91.148438 C 320.6875 97.355469 317.722656 103.097656 312.4375 107.867188 C 304.335938 115.109375 291.226562 119.449219 277.382812 119.449219 " fill-opacity="1" fill-rule="nonzero"/><path fill="#040606" d="M 277.382812 145.0625 C 252.933594 145.0625 233.738281 132.226562 233.738281 115.84375 L 233.769531 115.261719 C 233.769531 111.6875 236.671875 108.753906 240.25 108.753906 C 243.824219 108.753906 246.726562 111.6875 246.726562 115.261719 C 246.726562 115.507812 246.726562 115.722656 246.726562 115.875 C 246.726562 123.515625 259.320312 132.101562 277.382812 132.101562 C 295.476562 132.101562 308.066406 123.515625 308.066406 115.84375 L 308.066406 115.570312 C 308.066406 115.476562 308.066406 115.355469 308.066406 115.261719 L 308.035156 115.261719 C 308.003906 111.6875 310.878906 108.722656 314.453125 108.691406 C 318.03125 108.660156 320.992188 111.535156 321.023438 115.109375 C 321.023438 115.355469 321.023438 115.597656 321.023438 115.84375 C 321.023438 132.226562 301.863281 145.0625 277.382812 145.0625 " fill-opacity="1" fill-rule="nonzero"/><path fill="#040606" d="M 240.25 122.351562 C 236.644531 122.351562 233.738281 119.417969 233.738281 115.84375 L 233.769531 115.261719 C 233.800781 111.320312 233.769531 90.476562 233.738281 90.261719 L 233.738281 90.234375 C 233.738281 88.519531 234.410156 86.871094 235.632812 85.648438 C 236.855469 84.425781 238.507812 83.753906 240.21875 83.753906 L 240.25 83.753906 C 243.824219 83.753906 246.726562 86.625 246.726562 90.203125 C 246.726562 91.089844 246.789062 111.382812 246.726562 115.324219 C 246.726562 115.539062 246.726562 115.722656 246.726562 115.875 C 246.726562 117.585938 246.054688 119.234375 244.832031 120.457031 C 243.609375 121.679688 241.960938 122.351562 240.25 122.351562 " fill-opacity="1" fill-rule="nonzero"/><path fill="#040606" d="M 314.515625 122.351562 C 310.9375 122.351562 308.035156 119.417969 308.035156 115.84375 L 308.066406 115.261719 L 308.066406 115.140625 C 308.097656 111.257812 308.035156 91.792969 308.035156 90.964844 L 308.035156 90.234375 C 308.035156 86.65625 310.9375 83.753906 314.515625 83.753906 C 318.121094 83.753906 321.023438 86.65625 321.023438 90.234375 L 321.023438 90.9375 C 321.023438 91.761719 321.054688 111.320312 321.023438 115.292969 C 321.023438 115.507812 321.023438 115.722656 321.023438 115.875 C 321.023438 117.585938 320.320312 119.265625 319.128906 120.457031 C 317.90625 121.679688 316.257812 122.351562 314.515625 122.351562 " fill-opacity="1" fill-rule="nonzero"/><path fill="#040606" d="M 100.550781 73.972656 C 82.488281 73.972656 69.898438 82.53125 69.898438 90.234375 C 69.898438 93.625 72.21875 96.4375 74.175781 98.210938 C 79.890625 103.3125 89.976562 106.492188 100.550781 106.492188 C 111.308594 106.492188 121.148438 103.375 126.957031 98.210938 C 128.789062 96.527344 131.050781 93.871094 131.203125 90.597656 C 131.203125 90.507812 131.234375 90.355469 131.234375 90.203125 C 131.234375 82.53125 118.644531 73.972656 100.550781 73.972656 Z M 100.550781 119.449219 C 86.738281 119.449219 73.625 115.109375 65.527344 107.867188 C 59.902344 102.792969 56.90625 96.710938 56.90625 90.234375 C 56.90625 73.820312 76.101562 60.984375 100.550781 60.984375 C 125.03125 60.984375 144.191406 73.820312 144.191406 90.234375 C 144.191406 90.539062 144.191406 90.84375 144.164062 91.148438 C 143.855469 97.355469 140.890625 103.097656 135.605469 107.867188 C 127.507812 115.109375 114.394531 119.449219 100.550781 119.449219 " fill-opacity="1" fill-rule="nonzero"/><path fill="#040606" d="M 100.550781 145.0625 C 76.101562 145.0625 56.90625 132.226562 56.90625 115.84375 L 56.9375 115.261719 C 56.9375 111.6875 59.84375 108.753906 63.417969 108.753906 C 66.992188 108.753906 69.898438 111.6875 69.898438 115.261719 C 69.898438 115.507812 69.898438 115.722656 69.898438 115.875 C 69.898438 123.515625 82.488281 132.101562 100.550781 132.101562 C 118.644531 132.101562 131.234375 123.515625 131.234375 115.84375 L 131.234375 115.570312 C 131.234375 115.476562 131.234375 115.355469 131.234375 115.261719 C 131.171875 111.6875 134.046875 108.722656 137.621094 108.691406 C 141.226562 108.660156 144.164062 111.535156 144.191406 115.109375 C 144.191406 115.355469 144.191406 115.597656 144.191406 115.84375 C 144.191406 132.226562 125.03125 145.0625 100.550781 145.0625 " fill-opacity="1" fill-rule="nonzero"/><path fill="#040606" d="M 63.386719 122.351562 C 59.8125 122.351562 56.90625 119.417969 56.90625 115.84375 L 56.9375 115.261719 C 56.96875 111.320312 56.90625 90.476562 56.90625 90.261719 L 56.90625 90.234375 C 56.90625 88.519531 57.582031 86.871094 58.804688 85.648438 C 60.023438 84.425781 61.675781 83.753906 63.386719 83.753906 C 66.960938 83.753906 69.867188 86.625 69.898438 90.203125 C 69.898438 91.089844 69.925781 111.382812 69.898438 115.324219 C 69.898438 115.539062 69.898438 115.722656 69.898438 115.875 C 69.898438 117.585938 69.195312 119.234375 67.972656 120.457031 C 66.78125 121.679688 65.128906 122.351562 63.386719 122.351562 " fill-opacity="1" fill-rule="nonzero"/><path fill="#040606" d="M 137.683594 122.351562 C 134.109375 122.351562 131.203125 119.417969 131.203125 115.84375 L 131.203125 115.140625 C 131.265625 111.257812 131.203125 91.792969 131.203125 90.964844 L 131.203125 90.234375 C 131.203125 86.65625 134.109375 83.753906 137.683594 83.753906 C 141.257812 83.753906 144.164062 86.65625 144.164062 90.234375 L 144.164062 90.9375 C 144.164062 91.761719 144.222656 111.320312 144.191406 115.292969 C 144.191406 115.507812 144.191406 115.722656 144.164062 115.875 C 144.164062 117.585938 143.488281 119.265625 142.265625 120.457031 C 141.046875 121.679688 139.394531 122.351562 137.683594 122.351562 " fill-opacity="1" fill-rule="nonzero"/></svg>